<svg width="201" height="201" viewBox="0 0 201 201" fill="none" xmlns="http://www.w3.org/2000/svg">
<path d="M96.4143 48.2072C96.4143 74.8313 74.8313 96.4143 48.2072 96.4143C21.5831 96.4143 0 74.8313 0 48.2072C0 21.5831 21.5831 0 48.2072 0C74.8313 0 96.4143 21.5831 96.4143 48.2072Z" fill="black"/>
<path d="M42.9091 71.7273C40.0455 71.7273 37.5379 70.9697 35.3864 69.4545C33.2348 67.9394 31.553 65.8258 30.3409 63.1136C29.1439 60.4015 28.5455 57.2424 28.5455 53.6364C28.5455 50.0455 29.1439 46.9015 30.3409 44.2045C31.553 41.4924 33.2424 39.3864 35.4091 37.8864C37.5758 36.3712 40.0985 35.6136 42.9773 35.6136C45.0985 35.6136 46.8636 35.9924 48.2727 36.75C49.6818 37.4924 50.8106 38.4167 51.6591 39.5227C52.5076 40.6288 53.1667 41.7045 53.6364 42.75H54V24.4545H58.0682V71H54.1136V64.5227H53.6364C53.1667 65.5833 52.5 66.6742 51.6364 67.7955C50.7727 68.9015 49.6288 69.8333 48.2045 70.5909C46.7955 71.3485 45.0303 71.7273 42.9091 71.7273ZM43.3864 68.0227C45.6439 68.0227 47.5682 67.4091 49.1591 66.1818C50.75 64.9394 51.9621 63.2349 52.7955 61.0682C53.6439 58.8864 54.0682 56.3864 54.0682 53.5682C54.0682 50.7803 53.6515 48.3182 52.8182 46.1818C51.9849 44.0303 50.7727 42.3485 49.1818 41.1364C47.5909 39.9091 45.6591 39.2955 43.3864 39.2955C41.053 39.2955 39.0833 39.9318 37.4773 41.2045C35.8864 42.4621 34.6742 44.1667 33.8409 46.3182C33.0227 48.4697 32.6136 50.8864 32.6136 53.5682C32.6136 56.2803 33.0303 58.7273 33.8636 60.9091C34.697 63.0909 35.9091 64.8258 37.5 66.1136C39.1061 67.3864 41.0682 68.0227 43.3864 68.0227Z" fill="white"/>
<path d="M200.414 152.207C200.414 178.831 178.831 200.414 152.207 200.414C125.583 200.414 104 178.831 104 152.207C104 125.583 125.583 104 152.207 104C178.831 104 200.414 125.583 200.414 152.207Z" fill="black"/>
<path d="M163.795 142.75L160.091 143.795C159.727 142.75 159.212 141.803 158.545 140.955C157.879 140.106 157.008 139.432 155.932 138.932C154.871 138.432 153.553 138.182 151.977 138.182C149.614 138.182 147.674 138.742 146.159 139.864C144.644 140.985 143.886 142.432 143.886 144.205C143.886 145.705 144.402 146.924 145.432 147.864C146.477 148.788 148.083 149.523 150.25 150.068L155.523 151.364C158.447 152.076 160.636 153.205 162.091 154.75C163.561 156.295 164.295 158.235 164.295 160.568C164.295 162.538 163.75 164.288 162.659 165.818C161.568 167.348 160.045 168.553 158.091 169.432C156.152 170.295 153.902 170.727 151.341 170.727C147.932 170.727 145.121 169.962 142.909 168.432C140.697 166.886 139.28 164.659 138.659 161.75L142.545 160.795C143.045 162.871 144.023 164.439 145.477 165.5C146.947 166.561 148.879 167.091 151.273 167.091C153.955 167.091 156.098 166.492 157.705 165.295C159.311 164.083 160.114 162.568 160.114 160.75C160.114 159.341 159.644 158.159 158.705 157.205C157.765 156.235 156.341 155.523 154.432 155.068L148.727 153.705C145.697 152.977 143.455 151.826 142 150.25C140.545 148.674 139.818 146.72 139.818 144.386C139.818 142.462 140.341 140.773 141.386 139.318C142.432 137.848 143.871 136.697 145.705 135.864C147.538 135.03 149.629 134.614 151.977 134.614C155.174 134.614 157.727 135.341 159.636 136.795C161.561 138.235 162.947 140.22 163.795 142.75Z" fill="white"/>
<path d="M0 103.586H96.4143V149.004C96.4143 177.169 73.5826 200 45.4183 200H0V103.586Z" fill="black"/>
<path d="M103.586 50.9965C103.586 22.8322 126.417 0.000488281 154.582 0.000488281H200V96.4148H103.586V50.9965Z" fill="black"/>
</svg>
